<?xml version="1.0"?>
<svg xmlns="http://www.w3.org/2000/svg" height="512px" viewBox="0 0 512 512" width="512px"><g><g id="Joker"><g id="Glyph"><path d="m453.757 208.089c-54.823-29.9-131.141-15.025-184.718 28.3 36.351 34.98 59.119 80.844 65.247 133.054 7.48 2.4 17.875 11.738 22.848 17.923a63.461 63.461 0 0 1 26.866-16.401c.751-35.634 14.28-66.52 49.926-66.52 23.556 0 34.184 13.071 33.779 32.47a36 36 0 1 0 -5.779 71.53c28.468 0 45.472-31.544 30.393-55.257 34.665-51.577 24.792-110.542-38.562-145.099z" data-original="#000000" class="active-path" data-old_color="#000000" fill="#C12020"/><path d="m430.777 106.1c-33.137-112.62-270.777-102.781-270.777 70.345v3.372a214.234 214.234 0 0 1 96.963 45.756 215.2 215.2 0 0 1 79.037-41.566c.982-13.979-4.023-44.22 10.772-61.068 11.14-12.687 29.513-12.032 44.653-4.355-17.964 23.425-1.35 57.861 28.575 57.861a36 36 0 0 0 10.777-70.35z" data-original="#000000" class="active-path" data-old_color="#000000" fill="#C12020"/><path d="m46.222 336.915c-.406-19.431 10.25-32.47 33.778-32.47 51.223 0 47.86 65.842 48 66.52a63.461 63.461 0 0 1 26.866 16.4 71.789 71.789 0 0 1 18.483-15.962 20.651 20.651 0 0 1 21.305 0 73.522 73.522 0 0 1 13.346 10.323 73.534 73.534 0 0 1 13.349-10.321 20.651 20.651 0 0 1 21.305 0 73.522 73.522 0 0 1 13.346 10.321 73.534 73.534 0 0 1 13.349-10.321 20.651 20.651 0 0 1 21.305 0 73.522 73.522 0 0 1 13.346 10.321 70.966 70.966 0 0 1 14.339-10.869c-17.36-145.143-169.534-211.114-258.17-162.768-63.469 34.621-73.151 93.636-38.562 145.099-15.025 23.628 1.845 55.257 30.393 55.257a36 36 0 1 0 -5.778-71.53z" data-original="#000000" class="active-path" data-old_color="#000000" fill="#C12020"/><path d="m401 384.445c-27.019 0-49 32-49 32 0-17.549-17.95-29.153-21.549-31.3a4.651 4.651 0 0 0 -4.9 0c-3.601 2.147-21.551 13.755-21.551 31.3 0-17.549-17.95-29.153-21.549-31.3a4.651 4.651 0 0 0 -4.9 0c-3.601 2.147-21.551 13.755-21.551 31.3 0-17.549-17.95-29.153-21.549-31.3a4.651 4.651 0 0 0 -4.9 0c-3.601 2.147-21.551 13.755-21.551 31.3 0-17.549-17.95-29.153-21.549-31.3a4.651 4.651 0 0 0 -4.9 0c-3.601 2.147-21.551 13.755-21.551 31.3 0 0-21.981-32-49-32-3.866 0-7 3.582-7 8v79.555c0 4.418 3.134 8 7 8h290c3.866 0 7-3.582 7-8v-79.555c0-4.418-3.134-8-7-8z" data-original="#000000" class="active-path" data-old_color="#000000" fill="#C12020"/></g></g></g> </svg>
